{"title":"G-Force 3D (Stereoscopic Side-by-Side MKV)","uid":6671815,"size":5319692831,"categoryP":"video","categoryS":"3d","magnet":"?xt=urn:btih:076792296d808a31937976d181916b68dacd7594&amp;dn=G-Force+3D+%28Stereoscopic+Side-by-Side+MKV%29&amp;tr=udp%3A%2F%2Ftracker.openbittorrent.com%3A80&amp;tr=udp%3A%2F%2Fopen.demonii.com%3A1337&amp;tr=udp%3A%2F%2Ftracker.coppersurfer.tk%3A6969&amp;tr=udp%3A%2F%2Fexodus.desync.com%3A6969","seeders":0,"leechers":1,"uploader":"L3G3ND","files":2,"time":1315902167,"description":"This is a stereoscopic 3D rip of G-Force, for new 3D TVs or computers with Nvidia 3D Vision. Tested with Stereoscopic Player. Enjoy!\n\nTitle: G-Force (2009)\nRated: PG\nRuntime: 88 Minutes\nGenre: Action | Adventure | Comedy\n\nDescription:\nThe story is about a team of trained secret agent guinea pigs that takes on a mission for the US government. A specially trained squad of guinea pigs is dispatched to stop a diabolical billionaire, who plans to taking over the world with household appliances.\n-From IMDB Page: http://www.imdb.com/title/tt0436339/\n\nGeneral\nUnique ID : 249575200523963617903015004726309878359 (0xBBC26F69B260F0609B0383ABB202FA57)\nComplete name : [filepath]\\G-Force 3D.mkv\nFormat : Matroska\nFile size : 4.95 GiB\nDuration : 1h 24mn\nOverall bit rate : 8 385 Kbps\nEncoded date : UTC 2010-10-17 13:42:38\nWriting application : mkvmerge v4.2.0 ('No Talking') built on Jul 28 2010 18:38:23\nWriting library : libebml v1.0.0 + libmatroska v1.0.0\n\nVideo\nID : 1\nFormat : AVC\nFormat/Info : Advanced Video Codec\nFormat profile : &lt;a class=&quot;__cf_email__&quot; href=&quot;/cdn-cgi/l/email-protection&quot; data-cfemail=&quot;91d9f8f6f9d1dda5bfa0&quot;&gt;[email&amp;#160;protected]&lt;/a&gt;&lt;script data-cfhash='f9e31' type=&quot;text/javascript&quot;&gt;\n/* &lt;![CDATA[ */!function(){try{var t=&quot;currentScript&quot;in document?document.currentScript:function(){for(var t=document.getElementsByTagName(&quot;script&quot;),e=t.length;e--;)if(t[e].getAttribute(&quot;data-cfhash&quot;))return t[e]}();if(t&amp;&amp;t.previousSibling){var e,r,n,i,c=t.previousSibling,a=c.getAttribute(&quot;data-cfemail&quot;);if(a){for(e=&quot;&quot;,r=parseInt(a.substr(0,2),16),n=2;a.length-n;n+=2)i=parseInt(a.substr(n,2),16)^r,e+=String.fromCharCode(i);e=document.createTextNode(e),c.parentNode.replaceChild(e,c)}t.parentNode.removeChild(t);}}catch(u){}}()/* ]]&gt; */&lt;/script&gt;\nFormat settings, CABAC : Yes\nFormat settings, ReFrames : 4 frames\nCodec ID : V_MPEG4/ISO/AVC\nDuration : 1h 24mn\nBit rate : 8 000 Kbps\nWidth : 1 920 pixels\nHeight : 1 080 pixels\nDisplay aspect ratio : 16:9\nFrame rate : 25.000 fps\nColor space : YUV\nChroma subsampling : 4:2:0\nBit depth : 8 bits\nScan type : Progressive\nBits/(Pixel*Frame) : 0.154\nStream size : 4.63 GiB (93%)\nWriting library : x264 core 104 r1698 c41b8f0\n\nAudio\nID : 2\nFormat : AC-3\nFormat/Info : Audio Coding 3\nMode extension : CM (complete main)\nCodec ID : A_AC3\nDuration : 1h 24mn\nBit rate mode : Constant\nBit rate : 384 Kbps\nChannel(s) : 6 channels\nChannel positions : Front: L C R, Side: L R, LFE\nSampling rate : 48.0 KHz\nBit depth : 16 bits\nCompression mode : Lossy\nStream size : 232 MiB (5%)\nLanguage : English","torrent":{"xt":"urn:btih:076792296d808a31937976d181916b68dacd7594","amp;dn":"G-Force+3D+%28Stereoscopic+Side-by-Side+MKV%29","amp;tr":["udp%3A%2F%2Ftracker.openbittorrent.com%3A80","udp%3A%2F%2Fopen.demonii.com%3A1337","udp%3A%2F%2Ftracker.coppersurfer.tk%3A6969","udp%3A%2F%2Fexodus.desync.com%3A6969"],"infoHash":"076792296d808a31937976d181916b68dacd7594","infoHashBuffer":{"type":"Buffer","data":[7,103,146,41,109,128,138,49,147,121,118,209,129,145,107,104,218,205,117,148]},"announce":[],"urlList":[]}}